<?xml version="1.0" encoding="UTF-8" standalone="no"?>
<!DOCTYPE svg PUBLIC "-//W3C//DTD SVG 1.1//EN"
 "http://www.w3.org/Graphics/SVG/1.1/DTD/svg11.dtd">
<!-- Generated by graphviz version 14.1.1 (20251213.1925)
 -->
<!-- Title: InheritanceTree Pages: 1 -->
<svg width="455pt" height="501pt"
 viewBox="0.00 0.00 455.00 501.00" xmlns="http://www.w3.org/2000/svg" xmlns:xlink="http://www.w3.org/1999/xlink">
<g id="graph0" class="graph" transform="scale(1 1) rotate(0) translate(4 496.5)">
<title>InheritanceTree</title>
<polygon fill="white" stroke="none" points="-4,4 -4,-496.5 450.75,-496.5 450.75,4 -4,4"/>
<text xml:space="preserve" text-anchor="middle" x="223.38" y="-7.2" font-family="Times New Roman,serif" font-size="14.00">simple_archive &#45; Inheritance Hierarchy</text>
<!-- LISTING_UNARCHIVER -->
<g id="node1" class="node">
<title>LISTING_UNARCHIVER</title>
<path fill="none" stroke="black" d="M179.12,-132.5C179.12,-132.5 39.38,-132.5 39.38,-132.5 33.38,-132.5 27.38,-126.5 27.38,-120.5 27.38,-120.5 27.38,-108.5 27.38,-108.5 27.38,-102.5 33.38,-96.5 39.38,-96.5 39.38,-96.5 179.12,-96.5 179.12,-96.5 185.12,-96.5 191.12,-102.5 191.12,-108.5 191.12,-108.5 191.12,-120.5 191.12,-120.5 191.12,-126.5 185.12,-132.5 179.12,-132.5"/>
<text xml:space="preserve" text-anchor="middle" x="109.25" y="-109.45" font-family="Times New Roman,serif" font-size="14.00">LISTING_UNARCHIVER</text>
</g>
<!-- UNARCHIVER -->
<g id="node2" class="node">
<title>UNARCHIVER</title>
<path fill="none" stroke="black" d="M426.88,-96.5C426.88,-96.5 346.38,-96.5 346.38,-96.5 340.38,-96.5 334.38,-90.5 334.38,-84.5 334.38,-84.5 334.38,-72.5 334.38,-72.5 334.38,-66.5 340.38,-60.5 346.38,-60.5 346.38,-60.5 426.88,-60.5 426.88,-60.5 432.88,-60.5 438.88,-66.5 438.88,-72.5 438.88,-72.5 438.88,-84.5 438.88,-84.5 438.88,-90.5 432.88,-96.5 426.88,-96.5"/>
<text xml:space="preserve" text-anchor="middle" x="386.62" y="-73.45" font-family="Times New Roman,serif" font-size="14.00">UNARCHIVER</text>
</g>
<!-- LISTING_UNARCHIVER&#45;&gt;UNARCHIVER -->
<g id="edge1" class="edge">
<title>LISTING_UNARCHIVER&#45;&gt;UNARCHIVER</title>
<path fill="none" stroke="black" d="M191.32,-114.5C259.96,-114.5 346.75,-114.5 346.75,-114.5 346.75,-114.5 346.75,-108.44 346.75,-108.44"/>
<polygon fill="none" stroke="black" points="350.25,-108.44 346.75,-98.44 343.25,-108.44 350.25,-108.44"/>
</g>
<!-- SELECTIVE_FILE_UNARCHIVER -->
<g id="node3" class="node">
<title>SELECTIVE_FILE_UNARCHIVER</title>
<path fill="none" stroke="black" d="M206.5,-60.5C206.5,-60.5 12,-60.5 12,-60.5 6,-60.5 0,-54.5 0,-48.5 0,-48.5 0,-36.5 0,-36.5 0,-30.5 6,-24.5 12,-24.5 12,-24.5 206.5,-24.5 206.5,-24.5 212.5,-24.5 218.5,-30.5 218.5,-36.5 218.5,-36.5 218.5,-48.5 218.5,-48.5 218.5,-54.5 212.5,-60.5 206.5,-60.5"/>
<text xml:space="preserve" text-anchor="middle" x="109.25" y="-37.45" font-family="Times New Roman,serif" font-size="14.00">SELECTIVE_FILE_UNARCHIVER</text>
</g>
<!-- SELECTIVE_FILE_UNARCHIVER&#45;&gt;UNARCHIVER -->
<g id="edge2" class="edge">
<title>SELECTIVE_FILE_UNARCHIVER&#45;&gt;UNARCHIVER</title>
<path fill="none" stroke="black" d="M209.75,-60.92C209.75,-69.78 209.75,-78.5 209.75,-78.5 209.75,-78.5 322.52,-78.5 322.52,-78.5"/>
<polygon fill="none" stroke="black" points="322.52,-82 332.52,-78.5 322.52,-75 322.52,-82"/>
</g>
<!-- SIMPLE_ARCHIVE -->
<g id="node4" class="node">
<title>SIMPLE_ARCHIVE</title>
<path fill="none" stroke="black" d="M163,-204.5C163,-204.5 55.5,-204.5 55.5,-204.5 49.5,-204.5 43.5,-198.5 43.5,-192.5 43.5,-192.5 43.5,-180.5 43.5,-180.5 43.5,-174.5 49.5,-168.5 55.5,-168.5 55.5,-168.5 163,-168.5 163,-168.5 169,-168.5 175,-174.5 175,-180.5 175,-180.5 175,-192.5 175,-192.5 175,-198.5 169,-204.5 163,-204.5"/>
<text xml:space="preserve" text-anchor="middle" x="109.25" y="-181.45" font-family="Times New Roman,serif" font-size="14.00">SIMPLE_ARCHIVE</text>
</g>
<!-- SIMPLE_ARCHIVE_ENTRY -->
<g id="node5" class="node">
<title>SIMPLE_ARCHIVE_ENTRY</title>
<path fill="none" stroke="black" d="M188.5,-276.5C188.5,-276.5 30,-276.5 30,-276.5 24,-276.5 18,-270.5 18,-264.5 18,-264.5 18,-252.5 18,-252.5 18,-246.5 24,-240.5 30,-240.5 30,-240.5 188.5,-240.5 188.5,-240.5 194.5,-240.5 200.5,-246.5 200.5,-252.5 200.5,-252.5 200.5,-264.5 200.5,-264.5 200.5,-270.5 194.5,-276.5 188.5,-276.5"/>
<text xml:space="preserve" text-anchor="middle" x="109.25" y="-253.45" font-family="Times New Roman,serif" font-size="14.00">SIMPLE_ARCHIVE_ENTRY</text>
</g>
<!-- ANY -->
<g id="node6" class="node">
<title>ANY</title>
<path fill="none" stroke="black" d="M401.62,-276.5C401.62,-276.5 371.62,-276.5 371.62,-276.5 365.62,-276.5 359.62,-270.5 359.62,-264.5 359.62,-264.5 359.62,-252.5 359.62,-252.5 359.62,-246.5 365.62,-240.5 371.62,-240.5 371.62,-240.5 401.62,-240.5 401.62,-240.5 407.62,-240.5 413.62,-246.5 413.62,-252.5 413.62,-252.5 413.62,-264.5 413.62,-264.5 413.62,-270.5 407.62,-276.5 401.62,-276.5"/>
<text xml:space="preserve" text-anchor="middle" x="386.62" y="-253.45" font-family="Times New Roman,serif" font-size="14.00">ANY</text>
</g>
<!-- SIMPLE_ARCHIVE_ENTRY&#45;&gt;ANY -->
<g id="edge3" class="edge">
<title>SIMPLE_ARCHIVE_ENTRY&#45;&gt;ANY</title>
<path fill="none" stroke="black" d="M200.84,-258.5C200.84,-258.5 347.67,-258.5 347.67,-258.5"/>
<polygon fill="none" stroke="black" points="347.67,-262 357.67,-258.5 347.67,-255 347.67,-262"/>
</g>
<!-- SIMPLE_ZIP -->
<g id="node7" class="node">
<title>SIMPLE_ZIP</title>
<path fill="none" stroke="black" d="M143.12,-348.5C143.12,-348.5 75.38,-348.5 75.38,-348.5 69.38,-348.5 63.38,-342.5 63.38,-336.5 63.38,-336.5 63.38,-324.5 63.38,-324.5 63.38,-318.5 69.38,-312.5 75.38,-312.5 75.38,-312.5 143.12,-312.5 143.12,-312.5 149.12,-312.5 155.12,-318.5 155.12,-324.5 155.12,-324.5 155.12,-336.5 155.12,-336.5 155.12,-342.5 149.12,-348.5 143.12,-348.5"/>
<text xml:space="preserve" text-anchor="middle" x="109.25" y="-325.45" font-family="Times New Roman,serif" font-size="14.00">SIMPLE_ZIP</text>
</g>
<!-- LIB_TESTS -->
<g id="node8" class="node">
<title>LIB_TESTS</title>
<path fill="none" stroke="black" d="M139.38,-420.5C139.38,-420.5 79.12,-420.5 79.12,-420.5 73.12,-420.5 67.12,-414.5 67.12,-408.5 67.12,-408.5 67.12,-396.5 67.12,-396.5 67.12,-390.5 73.12,-384.5 79.12,-384.5 79.12,-384.5 139.38,-384.5 139.38,-384.5 145.38,-384.5 151.38,-390.5 151.38,-396.5 151.38,-396.5 151.38,-408.5 151.38,-408.5 151.38,-414.5 145.38,-420.5 139.38,-420.5"/>
<text xml:space="preserve" text-anchor="middle" x="109.25" y="-397.45" font-family="Times New Roman,serif" font-size="14.00">LIB_TESTS</text>
</g>
<!-- TEST_SET_BASE -->
<g id="node9" class="node">
<title>TEST_SET_BASE</title>
<path fill="none" stroke="black" d="M434.75,-420.5C434.75,-420.5 338.5,-420.5 338.5,-420.5 332.5,-420.5 326.5,-414.5 326.5,-408.5 326.5,-408.5 326.5,-396.5 326.5,-396.5 326.5,-390.5 332.5,-384.5 338.5,-384.5 338.5,-384.5 434.75,-384.5 434.75,-384.5 440.75,-384.5 446.75,-390.5 446.75,-396.5 446.75,-396.5 446.75,-408.5 446.75,-408.5 446.75,-414.5 440.75,-420.5 434.75,-420.5"/>
<text xml:space="preserve" text-anchor="middle" x="386.62" y="-397.45" font-family="Times New Roman,serif" font-size="14.00">TEST_SET_BASE</text>
</g>
<!-- LIB_TESTS&#45;&gt;TEST_SET_BASE -->
<g id="edge4" class="edge">
<title>LIB_TESTS&#45;&gt;TEST_SET_BASE</title>
<path fill="none" stroke="black" d="M151.68,-402.5C151.68,-402.5 314.69,-402.5 314.69,-402.5"/>
<polygon fill="none" stroke="black" points="314.69,-406 324.69,-402.5 314.69,-399 314.69,-406"/>
</g>
<!-- TEST_APP -->
<g id="node10" class="node">
<title>TEST_APP</title>
<path fill="none" stroke="black" d="M137.12,-492.5C137.12,-492.5 81.38,-492.5 81.38,-492.5 75.38,-492.5 69.38,-486.5 69.38,-480.5 69.38,-480.5 69.38,-468.5 69.38,-468.5 69.38,-462.5 75.38,-456.5 81.38,-456.5 81.38,-456.5 137.12,-456.5 137.12,-456.5 143.12,-456.5 149.12,-462.5 149.12,-468.5 149.12,-468.5 149.12,-480.5 149.12,-480.5 149.12,-486.5 143.12,-492.5 137.12,-492.5"/>
<text xml:space="preserve" text-anchor="middle" x="109.25" y="-469.45" font-family="Times New Roman,serif" font-size="14.00">TEST_APP</text>
</g>
</g>
</svg>
