<?xml version="1.0" encoding="UTF-8" standalone="no"?>
<!DOCTYPE svg PUBLIC "-//W3C//DTD SVG 1.1//EN"
 "http://www.w3.org/Graphics/SVG/1.1/DTD/svg11.dtd">
<!-- Generated by graphviz version 14.1.1 (20251213.1925)
 -->
<!-- Title: ContractCoverage Pages: 1 -->
<svg width="816pt" height="771pt"
 viewBox="48.00 48.00 768.00 723.00" xmlns="http://www.w3.org/2000/svg" xmlns:xlink="http://www.w3.org/1999/xlink">
<g id="graph0" class="graph" transform="scale(0.575626 0.575626) rotate(0) translate(87.39 1252.01)">
<title>ContractCoverage</title>
<polygon fill="white" stroke="none" points="-4,4 -4,-1168.62 1246.81,-1168.62 1246.81,4 -4,4"/>
<text xml:space="preserve" text-anchor="middle" x="621.41" y="-1151.12" font-family="Times New Roman,serif" font-size="10.00">simple_archive &#45; Contract Coverage</text>
<g id="clust1" class="cluster">
<title>cluster_LISTING_UNARCHIVER</title>
<polygon fill="white" stroke="black" points="0,-524.88 0,-795.38 235.5,-795.38 235.5,-524.88 0,-524.88"/>
<text xml:space="preserve" text-anchor="middle" x="117.75" y="-778.08" font-family="Times New Roman,serif" font-size="14.00">LISTING_UNARCHIVER</text>
</g>
<g id="clust2" class="cluster">
<title>cluster_SELECTIVE_FILE_UNARCHIVER</title>
<polygon fill="white" stroke="black" points="525.38,-804.88 525.38,-1135.38 784.12,-1135.38 784.12,-804.88 525.38,-804.88"/>
<text xml:space="preserve" text-anchor="middle" x="654.75" y="-1118.08" font-family="Times New Roman,serif" font-size="14.00">SELECTIVE_FILE_UNARCHIVER</text>
</g>
<g id="clust3" class="cluster">
<title>cluster_SIMPLE_ARCHIVE</title>
<polygon fill="white" stroke="black" points="840.69,-244.88 840.69,-665.38 1242.81,-665.38 1242.81,-244.88 840.69,-244.88"/>
<text xml:space="preserve" text-anchor="middle" x="1041.75" y="-648.08" font-family="Times New Roman,serif" font-size="14.00">SIMPLE_ARCHIVE</text>
</g>
<g id="clust4" class="cluster">
<title>cluster_SIMPLE_ARCHIVE_ENTRY</title>
<polygon fill="white" stroke="black" points="210.75,-874.88 210.75,-1145.38 444.75,-1145.38 444.75,-874.88 210.75,-874.88"/>
<text xml:space="preserve" text-anchor="middle" x="327.75" y="-1128.08" font-family="Times New Roman,serif" font-size="14.00">SIMPLE_ARCHIVE_ENTRY</text>
</g>
<g id="clust5" class="cluster">
<title>cluster_SIMPLE_ZIP</title>
<polygon fill="white" stroke="black" points="315.37,-279.88 315.37,-748.38 766.12,-748.38 766.12,-279.88 315.37,-279.88"/>
<text xml:space="preserve" text-anchor="middle" x="540.75" y="-731.08" font-family="Times New Roman,serif" font-size="14.00">SIMPLE_ZIP</text>
</g>
<g id="clust6" class="cluster">
<title>cluster_LIB_TESTS</title>
<polygon fill="white" stroke="black" points="839.88,-734.88 839.88,-1103.38 1241.62,-1103.38 1241.62,-734.88 839.88,-734.88"/>
<text xml:space="preserve" text-anchor="middle" x="1040.75" y="-1086.08" font-family="Times New Roman,serif" font-size="14.00">LIB_TESTS</text>
</g>
<g id="clust7" class="cluster">
<title>cluster_TEST_APP</title>
<polygon fill="white" stroke="black" points="70.75,-280.38 70.75,-455.88 244.75,-455.88 244.75,-280.38 70.75,-280.38"/>
<text xml:space="preserve" text-anchor="middle" x="157.75" y="-438.57" font-family="Times New Roman,serif" font-size="14.00">TEST_APP</text>
</g>
<g id="clust8" class="cluster">
<title>cluster_legend</title>
<polygon fill="lightyellow" stroke="black" points="560.38,0 560.38,-196.25 781.12,-196.25 781.12,0 560.38,0"/>
<text xml:space="preserve" text-anchor="middle" x="670.75" y="-182.75" font-family="Times New Roman,serif" font-size="10.00">Legend</text>
</g>
<!-- LISTING_UNARCHIVER_default_create -->
<g id="node1" class="node">
<title>LISTING_UNARCHIVER_default_create</title>
<polygon fill="lightcoral" stroke="black" points="235.5,-566.88 161.75,-566.88 161.75,-530.88 235.5,-530.88 235.5,-566.88"/>
<text xml:space="preserve" text-anchor="middle" x="198.62" y="-545" font-family="Times New Roman,serif" font-size="10.00">default_create</text>
</g>
<!-- LISTING_UNARCHIVER_make -->
<g id="node2" class="node">
<title>LISTING_UNARCHIVER_make</title>
<polygon fill="lightcoral" stroke="black" points="156.62,-770.88 102.62,-770.88 102.62,-734.88 156.62,-734.88 156.62,-770.88"/>
<text xml:space="preserve" text-anchor="middle" x="129.62" y="-749" font-family="Times New Roman,serif" font-size="10.00">make</text>
</g>
<!-- LISTING_UNARCHIVER_unarchivable -->
<g id="node3" class="node">
<title>LISTING_UNARCHIVER_unarchivable</title>
<polygon fill="lightcoral" stroke="black" points="69.25,-560.88 0,-560.88 0,-524.88 69.25,-524.88 69.25,-560.88"/>
<text xml:space="preserve" text-anchor="middle" x="34.62" y="-539" font-family="Times New Roman,serif" font-size="10.00">unarchivable</text>
</g>
<!-- LISTING_UNARCHIVER_required_blocks -->
<g id="node4" class="node">
<title>LISTING_UNARCHIVER_required_blocks</title>
<polygon fill="lightcoral" stroke="black" points="100.62,-710.88 18.62,-710.88 18.62,-674.88 100.62,-674.88 100.62,-710.88"/>
<text xml:space="preserve" text-anchor="middle" x="59.62" y="-689" font-family="Times New Roman,serif" font-size="10.00">required_blocks</text>
</g>
<!-- LISTING_UNARCHIVER_unarchive_block -->
<g id="node5" class="node">
<title>LISTING_UNARCHIVER_unarchive_block</title>
<polygon fill="lightcoral" stroke="black" points="205.12,-680.88 120.12,-680.88 120.12,-644.88 205.12,-644.88 205.12,-680.88"/>
<text xml:space="preserve" text-anchor="middle" x="162.62" y="-659" font-family="Times New Roman,serif" font-size="10.00">unarchive_block</text>
</g>
<!-- LISTING_UNARCHIVER_do_internal_initialization -->
<g id="node6" class="node">
<title>LISTING_UNARCHIVER_do_internal_initialization</title>
<polygon fill="lightcoral" stroke="black" points="139.5,-620.88 17.75,-620.88 17.75,-584.88 139.5,-584.88 139.5,-620.88"/>
<text xml:space="preserve" text-anchor="middle" x="78.62" y="-599" font-family="Times New Roman,serif" font-size="10.00">do_internal_initialization</text>
</g>
<!-- LISTING_UNARCHIVER_entries -->
<g id="node7" class="node">
<title>LISTING_UNARCHIVER_entries</title>
<polygon fill="lightgray" stroke="black" points="234.62,-740.88 180.62,-740.88 180.62,-704.88 234.62,-704.88 234.62,-740.88"/>
<text xml:space="preserve" text-anchor="middle" x="207.62" y="-719" font-family="Times New Roman,serif" font-size="10.00">entries</text>
</g>
<!-- SELECTIVE_FILE_UNARCHIVER_default_create -->
<g id="node8" class="node">
<title>SELECTIVE_FILE_UNARCHIVER_default_create</title>
<polygon fill="lightcoral" stroke="black" points="688.88,-1110.88 615.12,-1110.88 615.12,-1074.88 688.88,-1074.88 688.88,-1110.88"/>
<text xml:space="preserve" text-anchor="middle" x="652" y="-1089" font-family="Times New Roman,serif" font-size="10.00">default_create</text>
</g>
<!-- SELECTIVE_FILE_UNARCHIVER_make -->
<g id="node9" class="node">
<title>SELECTIVE_FILE_UNARCHIVER_make</title>
<polygon fill="khaki" stroke="black" points="772,-840.88 718,-840.88 718,-804.88 772,-804.88 772,-840.88"/>
<text xml:space="preserve" text-anchor="middle" x="745" y="-819" font-family="Times New Roman,serif" font-size="10.00">make</text>
</g>
<!-- SELECTIVE_FILE_UNARCHIVER_target_filename -->
<g id="node10" class="node">
<title>SELECTIVE_FILE_UNARCHIVER_target_filename</title>
<polygon fill="lightgray" stroke="black" points="772.88,-900.88 693.12,-900.88 693.12,-864.88 772.88,-864.88 772.88,-900.88"/>
<text xml:space="preserve" text-anchor="middle" x="733" y="-879" font-family="Times New Roman,serif" font-size="10.00">target_filename</text>
</g>
<!-- SELECTIVE_FILE_UNARCHIVER_destination_path -->
<g id="node11" class="node">
<title>SELECTIVE_FILE_UNARCHIVER_destination_path</title>
<polygon fill="lightgray" stroke="black" points="736.5,-1014.88 651.5,-1014.88 651.5,-978.88 736.5,-978.88 736.5,-1014.88"/>
<text xml:space="preserve" text-anchor="middle" x="694" y="-993" font-family="Times New Roman,serif" font-size="10.00">destination_path</text>
</g>
<!-- SELECTIVE_FILE_UNARCHIVER_file_extracted -->
<g id="node12" class="node">
<title>SELECTIVE_FILE_UNARCHIVER_file_extracted</title>
<polygon fill="lightgray" stroke="black" points="784.12,-1074.88 711.88,-1074.88 711.88,-1038.88 784.12,-1038.88 784.12,-1074.88"/>
<text xml:space="preserve" text-anchor="middle" x="748" y="-1053" font-family="Times New Roman,serif" font-size="10.00">file_extracted</text>
</g>
<!-- SELECTIVE_FILE_UNARCHIVER_unarchivable -->
<g id="node13" class="node">
<title>SELECTIVE_FILE_UNARCHIVER_unarchivable</title>
<polygon fill="lightcoral" stroke="black" points="594.62,-1110.88 525.38,-1110.88 525.38,-1074.88 594.62,-1074.88 594.62,-1110.88"/>
<text xml:space="preserve" text-anchor="middle" x="560" y="-1089" font-family="Times New Roman,serif" font-size="10.00">unarchivable</text>
</g>
<!-- SELECTIVE_FILE_UNARCHIVER_required_blocks -->
<g id="node14" class="node">
<title>SELECTIVE_FILE_UNARCHIVER_required_blocks</title>
<polygon fill="lightcoral" stroke="black" points="614,-894.88 532,-894.88 532,-858.88 614,-858.88 614,-894.88"/>
<text xml:space="preserve" text-anchor="middle" x="573" y="-873" font-family="Times New Roman,serif" font-size="10.00">required_blocks</text>
</g>
<!-- SELECTIVE_FILE_UNARCHIVER_unarchive_block -->
<g id="node15" class="node">
<title>SELECTIVE_FILE_UNARCHIVER_unarchive_block</title>
<polygon fill="lightcoral" stroke="black" points="628.5,-1050.88 543.5,-1050.88 543.5,-1014.88 628.5,-1014.88 628.5,-1050.88"/>
<text xml:space="preserve" text-anchor="middle" x="586" y="-1029" font-family="Times New Roman,serif" font-size="10.00">unarchive_block</text>
</g>
<!-- SELECTIVE_FILE_UNARCHIVER_do_internal_initialization -->
<g id="node16" class="node">
<title>SELECTIVE_FILE_UNARCHIVER_do_internal_initialization</title>
<polygon fill="lightcoral" stroke="black" points="670.88,-954.88 549.13,-954.88 549.13,-918.88 670.88,-918.88 670.88,-954.88"/>
<text xml:space="preserve" text-anchor="middle" x="610" y="-933" font-family="Times New Roman,serif" font-size="10.00">do_internal_initialization</text>
</g>
<!-- SELECTIVE_FILE_UNARCHIVER_active_file -->
<g id="node17" class="node">
<title>SELECTIVE_FILE_UNARCHIVER_active_file</title>
<polygon fill="lightgray" stroke="black" points="692.75,-840.88 633.25,-840.88 633.25,-804.88 692.75,-804.88 692.75,-840.88"/>
<text xml:space="preserve" text-anchor="middle" x="663" y="-819" font-family="Times New Roman,serif" font-size="10.00">active_file</text>
</g>
<!-- SIMPLE_ARCHIVE_make -->
<g id="node18" class="node">
<title>SIMPLE_ARCHIVE_make</title>
<polygon fill="lightcoral" stroke="black" points="1170.69,-280.88 1116.69,-280.88 1116.69,-244.88 1170.69,-244.88 1170.69,-280.88"/>
<text xml:space="preserve" text-anchor="middle" x="1143.69" y="-259" font-family="Times New Roman,serif" font-size="10.00">make</text>
</g>
<!-- SIMPLE_ARCHIVE_last_error -->
<g id="node19" class="node">
<title>SIMPLE_ARCHIVE_last_error</title>
<polygon fill="lightgray" stroke="black" points="1242.81,-502.88 1188.56,-502.88 1188.56,-466.88 1242.81,-466.88 1242.81,-502.88"/>
<text xml:space="preserve" text-anchor="middle" x="1215.69" y="-481" font-family="Times New Roman,serif" font-size="10.00">last_error</text>
</g>
<!-- SIMPLE_ARCHIVE_files_added -->
<g id="node20" class="node">
<title>SIMPLE_ARCHIVE_files_added</title>
<polygon fill="lightgray" stroke="black" points="909.31,-550.88 846.06,-550.88 846.06,-514.88 909.31,-514.88 909.31,-550.88"/>
<text xml:space="preserve" text-anchor="middle" x="877.69" y="-529" font-family="Times New Roman,serif" font-size="10.00">files_added</text>
</g>
<!-- SIMPLE_ARCHIVE_files_extracted -->
<g id="node21" class="node">
<title>SIMPLE_ARCHIVE_files_extracted</title>
<polygon fill="lightgray" stroke="black" points="1090.69,-610.88 1014.69,-610.88 1014.69,-574.88 1090.69,-574.88 1090.69,-610.88"/>
<text xml:space="preserve" text-anchor="middle" x="1052.69" y="-589" font-family="Times New Roman,serif" font-size="10.00">files_extracted</text>
</g>
<!-- SIMPLE_ARCHIVE_create_archive -->
<g id="node22" class="node">
<title>SIMPLE_ARCHIVE_create_archive</title>
<polygon fill="palegreen" stroke="black" points="993.31,-610.88 918.06,-610.88 918.06,-574.88 993.31,-574.88 993.31,-610.88"/>
<text xml:space="preserve" text-anchor="middle" x="955.69" y="-589" font-family="Times New Roman,serif" font-size="10.00">create_archive</text>
</g>
<!-- SIMPLE_ARCHIVE_create_archive_from_directory -->
<g id="node23" class="node">
<title>SIMPLE_ARCHIVE_create_archive_from_directory</title>
<polygon fill="khaki" stroke="black" points="1083.31,-442.87 942.06,-442.87 942.06,-406.87 1083.31,-406.87 1083.31,-442.87"/>
<text xml:space="preserve" text-anchor="middle" x="1012.69" y="-421" font-family="Times New Roman,serif" font-size="10.00">create_archive_from_directory</text>
</g>
<!-- SIMPLE_ARCHIVE_add_file_to_archive -->
<g id="node24" class="node">
<title>SIMPLE_ARCHIVE_add_file_to_archive</title>
<polygon fill="lightgray" stroke="black" points="1202.94,-442.87 1104.44,-442.87 1104.44,-406.87 1202.94,-406.87 1202.94,-442.87"/>
<text xml:space="preserve" text-anchor="middle" x="1153.69" y="-421" font-family="Times New Roman,serif" font-size="10.00">add_file_to_archive</text>
</g>
<!-- SIMPLE_ARCHIVE_archive_path_not_empty -->
<g id="node25" class="node">
<title>SIMPLE_ARCHIVE_archive_path_not_empty</title>
<polygon fill="lightgray" stroke="black" points="1169.06,-502.88 1050.31,-502.88 1050.31,-466.88 1169.06,-466.88 1169.06,-502.88"/>
<text xml:space="preserve" text-anchor="middle" x="1109.69" y="-481" font-family="Times New Roman,serif" font-size="10.00">archive_path_not_empty</text>
</g>
<!-- SIMPLE_ARCHIVE_a_archive_path -->
<g id="node26" class="node">
<title>SIMPLE_ARCHIVE_a_archive_path</title>
<polygon fill="lightgray" stroke="black" points="1093.19,-322.88 1014.19,-322.88 1014.19,-286.88 1093.19,-286.88 1093.19,-322.88"/>
<text xml:space="preserve" text-anchor="middle" x="1053.69" y="-301" font-family="Times New Roman,serif" font-size="10.00">a_archive_path</text>
</g>
<!-- SIMPLE_ARCHIVE_is_empty -->
<g id="node27" class="node">
<title>SIMPLE_ARCHIVE_is_empty</title>
<polygon fill="lightcoral" stroke="black" points="894.69,-640.88 840.69,-640.88 840.69,-604.88 894.69,-604.88 894.69,-640.88"/>
<text xml:space="preserve" text-anchor="middle" x="867.69" y="-619" font-family="Times New Roman,serif" font-size="10.00">is_empty</text>
</g>
<!-- SIMPLE_ARCHIVE_file_path_not_empty -->
<g id="node28" class="node">
<title>SIMPLE_ARCHIVE_file_path_not_empty</title>
<polygon fill="lightgray" stroke="black" points="1116.81,-382.88 1014.56,-382.88 1014.56,-346.88 1116.81,-346.88 1116.81,-382.88"/>
<text xml:space="preserve" text-anchor="middle" x="1065.69" y="-361" font-family="Times New Roman,serif" font-size="10.00">file_path_not_empty</text>
</g>
<!-- SIMPLE_ARCHIVE_a_file_path -->
<g id="node29" class="node">
<title>SIMPLE_ARCHIVE_a_file_path</title>
<polygon fill="lightgray" stroke="black" points="932.94,-322.88 870.44,-322.88 870.44,-286.88 932.94,-286.88 932.94,-322.88"/>
<text xml:space="preserve" text-anchor="middle" x="901.69" y="-301" font-family="Times New Roman,serif" font-size="10.00">a_file_path</text>
</g>
<!-- SIMPLE_ARCHIVE_extract_archive -->
<g id="node30" class="node">
<title>SIMPLE_ARCHIVE_extract_archive</title>
<polygon fill="khaki" stroke="black" points="1219.19,-340.88 1140.19,-340.88 1140.19,-304.88 1219.19,-304.88 1219.19,-340.88"/>
<text xml:space="preserve" text-anchor="middle" x="1179.69" y="-319" font-family="Times New Roman,serif" font-size="10.00">extract_archive</text>
</g>
<!-- SIMPLE_ARCHIVE_extract_file -->
<g id="node31" class="node">
<title>SIMPLE_ARCHIVE_extract_file</title>
<polygon fill="khaki" stroke="black" points="1232.94,-622.88 1170.44,-622.88 1170.44,-586.88 1232.94,-586.88 1232.94,-622.88"/>
<text xml:space="preserve" text-anchor="middle" x="1201.69" y="-601" font-family="Times New Roman,serif" font-size="10.00">extract_file</text>
</g>
<!-- SIMPLE_ARCHIVE_list_archive -->
<g id="node32" class="node">
<title>SIMPLE_ARCHIVE_list_archive</title>
<polygon fill="palegreen" stroke="black" points="922.69,-490.88 858.69,-490.88 858.69,-454.88 922.69,-454.88 922.69,-490.88"/>
<text xml:space="preserve" text-anchor="middle" x="890.69" y="-469" font-family="Times New Roman,serif" font-size="10.00">list_archive</text>
</g>
<!-- SIMPLE_ARCHIVE_archive_contains -->
<g id="node33" class="node">
<title>SIMPLE_ARCHIVE_archive_contains</title>
<polygon fill="khaki" stroke="black" points="991.56,-382.88 905.81,-382.88 905.81,-346.88 991.56,-346.88 991.56,-382.88"/>
<text xml:space="preserve" text-anchor="middle" x="948.69" y="-361" font-family="Times New Roman,serif" font-size="10.00">archive_contains</text>
</g>
<!-- SIMPLE_ARCHIVE_archive_entry_count -->
<g id="node34" class="node">
<title>SIMPLE_ARCHIVE_archive_entry_count</title>
<polygon fill="khaki" stroke="black" points="1031.06,-550.88 930.31,-550.88 930.31,-514.88 1031.06,-514.88 1031.06,-550.88"/>
<text xml:space="preserve" text-anchor="middle" x="980.69" y="-529" font-family="Times New Roman,serif" font-size="10.00">archive_entry_count</text>
</g>
<!-- SIMPLE_ARCHIVE_is_valid_archive -->
<g id="node35" class="node">
<title>SIMPLE_ARCHIVE_is_valid_archive</title>
<polygon fill="khaki" stroke="black" points="1194.81,-562.88 1110.56,-562.88 1110.56,-526.88 1194.81,-526.88 1194.81,-562.88"/>
<text xml:space="preserve" text-anchor="middle" x="1152.69" y="-541" font-family="Times New Roman,serif" font-size="10.00">is_valid_archive</text>
</g>
<!-- SIMPLE_ARCHIVE_ENTRY_make -->
<g id="node36" class="node">
<title>SIMPLE_ARCHIVE_ENTRY_make</title>
<polygon fill="palegreen" stroke="black" points="342.75,-910.88 288.75,-910.88 288.75,-874.88 342.75,-874.88 342.75,-910.88"/>
<text xml:space="preserve" text-anchor="middle" x="315.75" y="-889" font-family="Times New Roman,serif" font-size="10.00">make</text>
</g>
<!-- SIMPLE_ARCHIVE_ENTRY_name -->
<g id="node37" class="node">
<title>SIMPLE_ARCHIVE_ENTRY_name</title>
<polygon fill="lightgray" stroke="black" points="366.75,-1120.88 312.75,-1120.88 312.75,-1084.88 366.75,-1084.88 366.75,-1120.88"/>
<text xml:space="preserve" text-anchor="middle" x="339.75" y="-1099" font-family="Times New Roman,serif" font-size="10.00">name</text>
</g>
<!-- SIMPLE_ARCHIVE_ENTRY_size -->
<g id="node38" class="node">
<title>SIMPLE_ARCHIVE_ENTRY_size</title>
<polygon fill="lightgray" stroke="black" points="444.75,-1090.88 390.75,-1090.88 390.75,-1054.88 444.75,-1054.88 444.75,-1090.88"/>
<text xml:space="preserve" text-anchor="middle" x="417.75" y="-1069" font-family="Times New Roman,serif" font-size="10.00">size</text>
</g>
<!-- SIMPLE_ARCHIVE_ENTRY_is_directory -->
<g id="node39" class="node">
<title>SIMPLE_ARCHIVE_ENTRY_is_directory</title>
<polygon fill="lightgray" stroke="black" points="431.12,-922.88 366.38,-922.88 366.38,-886.88 431.12,-886.88 431.12,-922.88"/>
<text xml:space="preserve" text-anchor="middle" x="398.75" y="-901" font-family="Times New Roman,serif" font-size="10.00">is_directory</text>
</g>
<!-- SIMPLE_ARCHIVE_ENTRY_modification_time -->
<g id="node40" class="node">
<title>SIMPLE_ARCHIVE_ENTRY_modification_time</title>
<polygon fill="lightgray" stroke="black" points="421.62,-1030.88 329.88,-1030.88 329.88,-994.88 421.62,-994.88 421.62,-1030.88"/>
<text xml:space="preserve" text-anchor="middle" x="375.75" y="-1009" font-family="Times New Roman,serif" font-size="10.00">modification_time</text>
</g>
<!-- SIMPLE_ARCHIVE_ENTRY_set_size -->
<g id="node41" class="node">
<title>SIMPLE_ARCHIVE_ENTRY_set_size</title>
<polygon fill="khaki" stroke="black" points="264.75,-910.88 210.75,-910.88 210.75,-874.88 264.75,-874.88 264.75,-910.88"/>
<text xml:space="preserve" text-anchor="middle" x="237.75" y="-889" font-family="Times New Roman,serif" font-size="10.00">set_size</text>
</g>
<!-- SIMPLE_ARCHIVE_ENTRY_set_is_directory -->
<g id="node42" class="node">
<title>SIMPLE_ARCHIVE_ENTRY_set_is_directory</title>
<polygon fill="khaki" stroke="black" points="309.38,-1060.88 228.13,-1060.88 228.13,-1024.88 309.38,-1024.88 309.38,-1060.88"/>
<text xml:space="preserve" text-anchor="middle" x="268.75" y="-1039" font-family="Times New Roman,serif" font-size="10.00">set_is_directory</text>
</g>
<!-- SIMPLE_ARCHIVE_ENTRY_set_modification_time -->
<g id="node43" class="node">
<title>SIMPLE_ARCHIVE_ENTRY_set_modification_time</title>
<polygon fill="khaki" stroke="black" points="342.88,-970.88 234.63,-970.88 234.63,-934.88 342.88,-934.88 342.88,-970.88"/>
<text xml:space="preserve" text-anchor="middle" x="288.75" y="-949" font-family="Times New Roman,serif" font-size="10.00">set_modification_time</text>
</g>
<!-- SIMPLE_ARCHIVE_ENTRY_out -->
<g id="node44" class="node">
<title>SIMPLE_ARCHIVE_ENTRY_out</title>
<polygon fill="lightcoral" stroke="black" points="288.75,-1120.88 234.75,-1120.88 234.75,-1084.88 288.75,-1084.88 288.75,-1120.88"/>
<text xml:space="preserve" text-anchor="middle" x="261.75" y="-1099" font-family="Times New Roman,serif" font-size="10.00">out</text>
</g>
<!-- SIMPLE_ZIP_make -->
<g id="node45" class="node">
<title>SIMPLE_ZIP_make</title>
<polygon fill="lightcoral" stroke="black" points="640,-723.88 586,-723.88 586,-687.88 640,-687.88 640,-723.88"/>
<text xml:space="preserve" text-anchor="middle" x="613" y="-702" font-family="Times New Roman,serif" font-size="10.00">make</text>
</g>
<!-- SIMPLE_ZIP_last_error -->
<g id="node46" class="node">
<title>SIMPLE_ZIP_last_error</title>
<polygon fill="lightgray" stroke="black" points="766.12,-615.88 711.87,-615.88 711.87,-579.88 766.12,-579.88 766.12,-615.88"/>
<text xml:space="preserve" text-anchor="middle" x="739" y="-594" font-family="Times New Roman,serif" font-size="10.00">last_error</text>
</g>
<!-- SIMPLE_ZIP_files_added -->
<g id="node47" class="node">
<title>SIMPLE_ZIP_files_added</title>
<polygon fill="lightgray" stroke="black" points="378.62,-483.88 315.37,-483.88 315.37,-447.88 378.62,-447.88 378.62,-483.88"/>
<text xml:space="preserve" text-anchor="middle" x="347" y="-462" font-family="Times New Roman,serif" font-size="10.00">files_added</text>
</g>
<!-- SIMPLE_ZIP_files_extracted -->
<g id="node48" class="node">
<title>SIMPLE_ZIP_files_extracted</title>
<polygon fill="lightgray" stroke="black" points="584,-663.88 508,-663.88 508,-627.88 584,-627.88 584,-663.88"/>
<text xml:space="preserve" text-anchor="middle" x="546" y="-642" font-family="Times New Roman,serif" font-size="10.00">files_extracted</text>
</g>
<!-- SIMPLE_ZIP_has_error -->
<g id="node49" class="node">
<title>SIMPLE_ZIP_has_error</title>
<polygon fill="lightcoral" stroke="black" points="562,-315.88 508,-315.88 508,-279.88 562,-279.88 562,-315.88"/>
<text xml:space="preserve" text-anchor="middle" x="535" y="-294" font-family="Times New Roman,serif" font-size="10.00">has_error</text>
</g>
<!-- SIMPLE_ZIP_begin_create -->
<g id="node50" class="node">
<title>SIMPLE_ZIP_begin_create</title>
<polygon fill="palegreen" stroke="black" points="432.25,-375.88 363.75,-375.88 363.75,-339.88 432.25,-339.88 432.25,-375.88"/>
<text xml:space="preserve" text-anchor="middle" x="398" y="-354" font-family="Times New Roman,serif" font-size="10.00">begin_create</text>
</g>
<!-- SIMPLE_ZIP_add_entry_from_string -->
<g id="node51" class="node">
<title>SIMPLE_ZIP_add_entry_from_string</title>
<polygon fill="khaki" stroke="black" points="652.87,-555.88 543.12,-555.88 543.12,-519.88 652.87,-519.88 652.87,-555.88"/>
<text xml:space="preserve" text-anchor="middle" x="598" y="-534" font-family="Times New Roman,serif" font-size="10.00">add_entry_from_string</text>
</g>
<!-- SIMPLE_ZIP_end_create -->
<g id="node52" class="node">
<title>SIMPLE_ZIP_end_create</title>
<polygon fill="palegreen" stroke="black" points="664.12,-333.88 603.87,-333.88 603.87,-297.88 664.12,-297.88 664.12,-333.88"/>
<text xml:space="preserve" text-anchor="middle" x="634" y="-312" font-family="Times New Roman,serif" font-size="10.00">end_create</text>
</g>
<!-- SIMPLE_ZIP_is_creating -->
<g id="node53" class="node">
<title>SIMPLE_ZIP_is_creating</title>
<polygon fill="lightcoral" stroke="black" points="748.5,-333.88 687.5,-333.88 687.5,-297.88 748.5,-297.88 748.5,-333.88"/>
<text xml:space="preserve" text-anchor="middle" x="718" y="-312" font-family="Times New Roman,serif" font-size="10.00">is_creating</text>
</g>
<!-- SIMPLE_ZIP_list_archive -->
<g id="node54" class="node">
<title>SIMPLE_ZIP_list_archive</title>
<polygon fill="palegreen" stroke="black" points="740,-555.88 676,-555.88 676,-519.88 740,-519.88 740,-555.88"/>
<text xml:space="preserve" text-anchor="middle" x="708" y="-534" font-family="Times New Roman,serif" font-size="10.00">list_archive</text>
</g>
<!-- SIMPLE_ZIP_extract_entry -->
<g id="node55" class="node">
<title>SIMPLE_ZIP_extract_entry</title>
<polygon fill="khaki" stroke="black" points="734,-675.88 664,-675.88 664,-639.88 734,-639.88 734,-675.88"/>
<text xml:space="preserve" text-anchor="middle" x="699" y="-654" font-family="Times New Roman,serif" font-size="10.00">extract_entry</text>
</g>
<!-- SIMPLE_ZIP_archive_contains -->
<g id="node56" class="node">
<title>SIMPLE_ZIP_archive_contains</title>
<polygon fill="khaki" stroke="black" points="718.87,-393.88 633.12,-393.88 633.12,-357.88 718.87,-357.88 718.87,-393.88"/>
<text xml:space="preserve" text-anchor="middle" x="676" y="-372" font-family="Times New Roman,serif" font-size="10.00">archive_contains</text>
</g>
<!-- SIMPLE_ZIP_is_valid_archive -->
<g id="node57" class="node">
<title>SIMPLE_ZIP_is_valid_archive</title>
<polygon fill="khaki" stroke="black" points="688.12,-615.88 603.88,-615.88 603.88,-579.88 688.12,-579.88 688.12,-615.88"/>
<text xml:space="preserve" text-anchor="middle" x="646" y="-594" font-family="Times New Roman,serif" font-size="10.00">is_valid_archive</text>
</g>
<!-- SIMPLE_ZIP_current_zip -->
<g id="node58" class="node">
<title>SIMPLE_ZIP_current_zip</title>
<polygon fill="lightgray" stroke="black" points="390.25,-699.88 327.75,-699.88 327.75,-663.88 390.25,-663.88 390.25,-699.88"/>
<text xml:space="preserve" text-anchor="middle" x="359" y="-678" font-family="Times New Roman,serif" font-size="10.00">current_zip</text>
</g>
<!-- SIMPLE_ZIP_c_zip_open -->
<g id="node59" class="node">
<title>SIMPLE_ZIP_c_zip_open</title>
<polygon fill="lightcoral" stroke="black" points="404,-603.88 340,-603.88 340,-567.88 404,-567.88 404,-603.88"/>
<text xml:space="preserve" text-anchor="middle" x="372" y="-582" font-family="Times New Roman,serif" font-size="10.00">c_zip_open</text>
</g>
<!-- SIMPLE_ZIP_c_zip_add_entry -->
<g id="node60" class="node">
<title>SIMPLE_ZIP_c_zip_add_entry</title>
<polygon fill="lightcoral" stroke="black" points="484.5,-435.88 399.5,-435.88 399.5,-399.88 484.5,-399.88 484.5,-435.88"/>
<text xml:space="preserve" text-anchor="middle" x="442" y="-414" font-family="Times New Roman,serif" font-size="10.00">c_zip_add_entry</text>
</g>
<!-- SIMPLE_ZIP_c_zip_close -->
<g id="node61" class="node">
<title>SIMPLE_ZIP_c_zip_close</title>
<polygon fill="lightcoral" stroke="black" points="416.37,-543.88 351.62,-543.88 351.62,-507.88 416.37,-507.88 416.37,-543.88"/>
<text xml:space="preserve" text-anchor="middle" x="384" y="-522" font-family="Times New Roman,serif" font-size="10.00">c_zip_close</text>
</g>
<!-- SIMPLE_ZIP_c_unzip_open -->
<g id="node62" class="node">
<title>SIMPLE_ZIP_c_unzip_open</title>
<polygon fill="lightcoral" stroke="black" points="486.25,-663.88 411.75,-663.88 411.75,-627.88 486.25,-627.88 486.25,-663.88"/>
<text xml:space="preserve" text-anchor="middle" x="449" y="-642" font-family="Times New Roman,serif" font-size="10.00">c_unzip_open</text>
</g>
<!-- SIMPLE_ZIP_c_unzip_close -->
<g id="node63" class="node">
<title>SIMPLE_ZIP_c_unzip_close</title>
<polygon fill="lightcoral" stroke="black" points="582.62,-375.88 507.37,-375.88 507.37,-339.88 582.62,-339.88 582.62,-375.88"/>
<text xml:space="preserve" text-anchor="middle" x="545" y="-354" font-family="Times New Roman,serif" font-size="10.00">c_unzip_close</text>
</g>
<!-- SIMPLE_ZIP_c_unzip_go_to_first -->
<g id="node64" class="node">
<title>SIMPLE_ZIP_c_unzip_go_to_first</title>
<polygon fill="lightcoral" stroke="black" points="522.62,-603.88 423.37,-603.88 423.37,-567.88 522.62,-567.88 522.62,-603.88"/>
<text xml:space="preserve" text-anchor="middle" x="473" y="-582" font-family="Times New Roman,serif" font-size="10.00">c_unzip_go_to_first</text>
</g>
<!-- SIMPLE_ZIP_c_unzip_go_to_next -->
<g id="node65" class="node">
<title>SIMPLE_ZIP_c_unzip_go_to_next</title>
<polygon fill="lightcoral" stroke="black" points="608.75,-435.88 507.25,-435.88 507.25,-399.88 608.75,-399.88 608.75,-435.88"/>
<text xml:space="preserve" text-anchor="middle" x="558" y="-414" font-family="Times New Roman,serif" font-size="10.00">c_unzip_go_to_next</text>
</g>
<!-- SIMPLE_ZIP_c_unzip_locate_file -->
<g id="node66" class="node">
<title>SIMPLE_ZIP_c_unzip_locate_file</title>
<polygon fill="lightcoral" stroke="black" points="694.88,-495.87 597.12,-495.87 597.12,-459.87 694.88,-459.87 694.88,-495.87"/>
<text xml:space="preserve" text-anchor="middle" x="646" y="-474" font-family="Times New Roman,serif" font-size="10.00">c_unzip_locate_file</text>
</g>
<!-- SIMPLE_ZIP_c_unzip_get_current_filename -->
<g id="node67" class="node">
<title>SIMPLE_ZIP_c_unzip_get_current_filename</title>
<polygon fill="lightcoral" stroke="black" points="576.62,-495.87 435.37,-495.87 435.37,-459.87 576.62,-459.87 576.62,-495.87"/>
<text xml:space="preserve" text-anchor="middle" x="506" y="-474" font-family="Times New Roman,serif" font-size="10.00">c_unzip_get_current_filename</text>
</g>
<!-- LIB_TESTS_on_prepare -->
<g id="node68" class="node">
<title>LIB_TESTS_on_prepare</title>
<polygon fill="lightcoral" stroke="black" points="914.75,-987.88 853,-987.88 853,-951.88 914.75,-951.88 914.75,-987.88"/>
<text xml:space="preserve" text-anchor="middle" x="883.88" y="-966" font-family="Times New Roman,serif" font-size="10.00">on_prepare</text>
</g>
<!-- LIB_TESTS_on_clean -->
<g id="node69" class="node">
<title>LIB_TESTS_on_clean</title>
<polygon fill="lightcoral" stroke="black" points="893.88,-1078.88 839.88,-1078.88 839.88,-1042.88 893.88,-1042.88 893.88,-1078.88"/>
<text xml:space="preserve" text-anchor="middle" x="866.88" y="-1057" font-family="Times New Roman,serif" font-size="10.00">on_clean</text>
</g>
<!-- LIB_TESTS_test_create_archive -->
<g id="node70" class="node">
<title>LIB_TESTS_test_create_archive</title>
<polygon fill="lightcoral" stroke="black" points="1025.25,-987.88 930.5,-987.88 930.5,-951.88 1025.25,-951.88 1025.25,-987.88"/>
<text xml:space="preserve" text-anchor="middle" x="977.88" y="-966" font-family="Times New Roman,serif" font-size="10.00">test_create_archive</text>
</g>
<!-- LIB_TESTS_test_list_archive -->
<g id="node71" class="node">
<title>LIB_TESTS_test_list_archive</title>
<polygon fill="lightcoral" stroke="black" points="1202.63,-770.88 1119.13,-770.88 1119.13,-734.88 1202.63,-734.88 1202.63,-770.88"/>
<text xml:space="preserve" text-anchor="middle" x="1160.88" y="-749" font-family="Times New Roman,serif" font-size="10.00">test_list_archive</text>
</g>
<!-- LIB_TESTS_test_extract_archive -->
<g id="node72" class="node">
<title>LIB_TESTS_test_extract_archive</title>
<polygon fill="lightcoral" stroke="black" points="1204.12,-994.87 1105.62,-994.87 1105.62,-958.87 1204.12,-958.87 1204.12,-994.87"/>
<text xml:space="preserve" text-anchor="middle" x="1154.88" y="-973" font-family="Times New Roman,serif" font-size="10.00">test_extract_archive</text>
</g>
<!-- LIB_TESTS_test_archive_contains -->
<g id="node73" class="node">
<title>LIB_TESTS_test_archive_contains</title>
<polygon fill="lightcoral" stroke="black" points="1154.5,-938.87 1049.25,-938.87 1049.25,-902.87 1154.5,-902.87 1154.5,-938.87"/>
<text xml:space="preserve" text-anchor="middle" x="1101.88" y="-917" font-family="Times New Roman,serif" font-size="10.00">test_archive_contains</text>
</g>
<!-- LIB_TESTS_test_entry_count -->
<g id="node74" class="node">
<title>LIB_TESTS_test_entry_count</title>
<polygon fill="lightcoral" stroke="black" points="987.38,-826.88 902.38,-826.88 902.38,-790.88 987.38,-790.88 987.38,-826.88"/>
<text xml:space="preserve" text-anchor="middle" x="944.88" y="-805" font-family="Times New Roman,serif" font-size="10.00">test_entry_count</text>
</g>
<!-- LIB_TESTS_test_is_valid_archive -->
<g id="node75" class="node">
<title>LIB_TESTS_test_is_valid_archive</title>
<polygon fill="lightcoral" stroke="black" points="1194.75,-882.87 1091,-882.87 1091,-846.87 1194.75,-846.87 1194.75,-882.87"/>
<text xml:space="preserve" text-anchor="middle" x="1142.88" y="-861" font-family="Times New Roman,serif" font-size="10.00">test_is_valid_archive</text>
</g>
<!-- LIB_TESTS_test_zip_create_and_list -->
<g id="node76" class="node">
<title>LIB_TESTS_test_zip_create_and_list</title>
<polygon fill="lightcoral" stroke="black" points="1066.75,-882.87 951,-882.87 951,-846.87 1066.75,-846.87 1066.75,-882.87"/>
<text xml:space="preserve" text-anchor="middle" x="1008.88" y="-861" font-family="Times New Roman,serif" font-size="10.00">test_zip_create_and_list</text>
</g>
<!-- LIB_TESTS_test_zip_extract_entry -->
<g id="node77" class="node">
<title>LIB_TESTS_test_zip_extract_entry</title>
<polygon fill="lightcoral" stroke="black" points="1121.62,-826.88 1014.12,-826.88 1014.12,-790.88 1121.62,-790.88 1121.62,-826.88"/>
<text xml:space="preserve" text-anchor="middle" x="1067.88" y="-805" font-family="Times New Roman,serif" font-size="10.00">test_zip_extract_entry</text>
</g>
<!-- LIB_TESTS_test_zip_contains -->
<g id="node78" class="node">
<title>LIB_TESTS_test_zip_contains</title>
<polygon fill="lightcoral" stroke="black" points="969.88,-770.88 881.88,-770.88 881.88,-734.88 969.88,-734.88 969.88,-770.88"/>
<text xml:space="preserve" text-anchor="middle" x="925.88" y="-749" font-family="Times New Roman,serif" font-size="10.00">test_zip_contains</text>
</g>
<!-- LIB_TESTS_test_zip_is_valid -->
<g id="node79" class="node">
<title>LIB_TESTS_test_zip_is_valid</title>
<polygon fill="lightcoral" stroke="black" points="1087.13,-1043.88 1000.63,-1043.88 1000.63,-1007.88 1087.13,-1007.88 1087.13,-1043.88"/>
<text xml:space="preserve" text-anchor="middle" x="1043.88" y="-1022" font-family="Times New Roman,serif" font-size="10.00">test_zip_is_valid</text>
</g>
<!-- LIB_TESTS_test_directory -->
<g id="node80" class="node">
<title>LIB_TESTS_test_directory</title>
<polygon fill="lightgray" stroke="black" points="982,-1043.88 909.75,-1043.88 909.75,-1007.88 982,-1007.88 982,-1043.88"/>
<text xml:space="preserve" text-anchor="middle" x="945.88" y="-1022" font-family="Times New Roman,serif" font-size="10.00">test_directory</text>
</g>
<!-- LIB_TESTS_test_file_1 -->
<g id="node81" class="node">
<title>LIB_TESTS_test_file_1</title>
<polygon fill="lightgray" stroke="black" points="1241.62,-938.87 1182.12,-938.87 1182.12,-902.87 1241.62,-902.87 1241.62,-938.87"/>
<text xml:space="preserve" text-anchor="middle" x="1211.88" y="-917" font-family="Times New Roman,serif" font-size="10.00">test_file_1</text>
</g>
<!-- LIB_TESTS_test_file_2 -->
<g id="node82" class="node">
<title>LIB_TESTS_test_file_2</title>
<polygon fill="lightgray" stroke="black" points="926.63,-931.87 867.13,-931.87 867.13,-895.87 926.63,-895.87 926.63,-931.87"/>
<text xml:space="preserve" text-anchor="middle" x="896.88" y="-910" font-family="Times New Roman,serif" font-size="10.00">test_file_2</text>
</g>
<!-- LIB_TESTS_test_archive -->
<g id="node83" class="node">
<title>LIB_TESTS_test_archive</title>
<polygon fill="lightgray" stroke="black" points="1226.62,-1050.88 1161.12,-1050.88 1161.12,-1014.88 1226.62,-1014.88 1226.62,-1050.88"/>
<text xml:space="preserve" text-anchor="middle" x="1193.88" y="-1029" font-family="Times New Roman,serif" font-size="10.00">test_archive</text>
</g>
<!-- LIB_TESTS_test_zip_archive -->
<g id="node84" class="node">
<title>LIB_TESTS_test_zip_archive</title>
<polygon fill="lightgray" stroke="black" points="1097.62,-770.88 1014.12,-770.88 1014.12,-734.88 1097.62,-734.88 1097.62,-770.88"/>
<text xml:space="preserve" text-anchor="middle" x="1055.88" y="-749" font-family="Times New Roman,serif" font-size="10.00">test_zip_archive</text>
</g>
<!-- LIB_TESTS_extract_directory -->
<g id="node85" class="node">
<title>LIB_TESTS_extract_directory</title>
<polygon fill="lightgray" stroke="black" points="1232.75,-826.88 1147,-826.88 1147,-790.88 1232.75,-790.88 1232.75,-826.88"/>
<text xml:space="preserve" text-anchor="middle" x="1189.88" y="-805" font-family="Times New Roman,serif" font-size="10.00">extract_directory</text>
</g>
<!-- TEST_APP_make -->
<g id="node86" class="node">
<title>TEST_APP_make</title>
<polygon fill="lightcoral" stroke="black" points="124.75,-316.38 70.75,-316.38 70.75,-280.38 124.75,-280.38 124.75,-316.38"/>
<text xml:space="preserve" text-anchor="middle" x="97.75" y="-294.5" font-family="Times New Roman,serif" font-size="10.00">make</text>
</g>
<!-- TEST_APP_tests -->
<g id="node87" class="node">
<title>TEST_APP_tests</title>
<polygon fill="lightgray" stroke="black" points="169.75,-371.38 115.75,-371.38 115.75,-335.38 169.75,-335.38 169.75,-371.38"/>
<text xml:space="preserve" text-anchor="middle" x="142.75" y="-349.5" font-family="Times New Roman,serif" font-size="10.00">tests</text>
</g>
<!-- TEST_APP_passed -->
<g id="node88" class="node">
<title>TEST_APP_passed</title>
<polygon fill="lightgray" stroke="black" points="234.75,-426.38 180.75,-426.38 180.75,-390.38 234.75,-390.38 234.75,-426.38"/>
<text xml:space="preserve" text-anchor="middle" x="207.75" y="-404.5" font-family="Times New Roman,serif" font-size="10.00">passed</text>
</g>
<!-- TEST_APP_failed -->
<g id="node89" class="node">
<title>TEST_APP_failed</title>
<polygon fill="lightgray" stroke="black" points="159.75,-431.38 105.75,-431.38 105.75,-395.38 159.75,-395.38 159.75,-431.38"/>
<text xml:space="preserve" text-anchor="middle" x="132.75" y="-409.5" font-family="Times New Roman,serif" font-size="10.00">failed</text>
</g>
<!-- TEST_APP_run_test -->
<g id="node90" class="node">
<title>TEST_APP_run_test</title>
<polygon fill="lightcoral" stroke="black" points="244.75,-346.38 190.75,-346.38 190.75,-310.38 244.75,-310.38 244.75,-346.38"/>
<text xml:space="preserve" text-anchor="middle" x="217.75" y="-324.5" font-family="Times New Roman,serif" font-size="10.00">run_test</text>
</g>
<!-- legend_full -->
<g id="node91" class="node">
<title>legend_full</title>
<polygon fill="palegreen" stroke="black" points="770.62,-105 656.38,-105 656.38,-64 770.62,-64 770.62,-105"/>
<text xml:space="preserve" text-anchor="middle" x="713.5" y="-87.7" font-family="Times New Roman,serif" font-size="14.00">Full Contract</text>
<text xml:space="preserve" text-anchor="middle" x="713.5" y="-71.2" font-family="Times New Roman,serif" font-size="14.00">(require + ensure)</text>
</g>
<!-- legend_partial -->
<g id="node92" class="node">
<title>legend_partial</title>
<polygon fill="khaki" stroke="black" points="781.12,-41 663.88,-41 663.88,0 781.12,0 781.12,-41"/>
<text xml:space="preserve" text-anchor="middle" x="722.5" y="-23.7" font-family="Times New Roman,serif" font-size="14.00">Partial Contract</text>
<text xml:space="preserve" text-anchor="middle" x="722.5" y="-7.2" font-family="Times New Roman,serif" font-size="14.00">(require or ensure)</text>
</g>
<!-- legend_none -->
<g id="node93" class="node">
<title>legend_none</title>
<polygon fill="lightcoral" stroke="black" points="746.88,-163.5 664.12,-163.5 664.12,-127.5 746.88,-127.5 746.88,-163.5"/>
<text xml:space="preserve" text-anchor="middle" x="705.5" y="-140.45" font-family="Times New Roman,serif" font-size="14.00">No Contract</text>
</g>
<!-- legend_attr -->
<g id="node94" class="node">
<title>legend_attr</title>
<polygon fill="lightgray" stroke="black" points="640.88,-177 576.12,-177 576.12,-136 640.88,-136 640.88,-177"/>
<text xml:space="preserve" text-anchor="middle" x="608.5" y="-159.7" font-family="Times New Roman,serif" font-size="14.00">Attribute</text>
<text xml:space="preserve" text-anchor="middle" x="608.5" y="-143.2" font-family="Times New Roman,serif" font-size="14.00">(n/a)</text>
</g>
<!-- legend_stats -->
<g id="node95" class="node">
<title>legend_stats</title>
<polygon fill="white" stroke="black" points="626.62,-115 560.38,-115 560.38,-8 632.62,-8 632.62,-109 626.62,-115"/>
<polyline fill="none" stroke="black" points="626.62,-115 626.62,-109"/>
<polyline fill="none" stroke="black" points="632.62,-109 626.62,-109"/>
<text xml:space="preserve" text-anchor="middle" x="596.5" y="-97.7" font-family="Times New Roman,serif" font-size="14.00">Statistics</text>
<text xml:space="preserve" text-anchor="middle" x="596.5" y="-81.2" font-family="Times New Roman,serif" font-size="14.00">Full: 6</text>
<text xml:space="preserve" text-anchor="middle" x="596.5" y="-64.7" font-family="Times New Roman,serif" font-size="14.00">Partial: 14</text>
<text xml:space="preserve" text-anchor="middle" x="596.5" y="-48.2" font-family="Times New Roman,serif" font-size="14.00">None: 40</text>
<text xml:space="preserve" text-anchor="middle" x="596.5" y="-31.7" font-family="Times New Roman,serif" font-size="14.00">Attr: 31</text>
<text xml:space="preserve" text-anchor="middle" x="596.5" y="-15.2" font-family="Times New Roman,serif" font-size="14.00">Total: 91</text>
</g>
</g>
</svg>
