<?xml version="1.0" encoding="UTF-8" standalone="no"?>
<!DOCTYPE svg PUBLIC "-//W3C//DTD SVG 1.1//EN"
 "http://www.w3.org/Graphics/SVG/1.1/DTD/svg11.dtd">
<!-- Generated by graphviz version 14.1.1 (20251213.1925)
 -->
<!-- Title: Dependencies Pages: 1 -->
<svg width="347pt" height="285pt"
 viewBox="0.00 0.00 347.00 285.00" xmlns="http://www.w3.org/2000/svg" xmlns:xlink="http://www.w3.org/1999/xlink">
<g id="graph0" class="graph" transform="scale(1 1) rotate(0) translate(4 280.5)">
<title>Dependencies</title>
<polygon fill="white" stroke="none" points="-4,4 -4,-280.5 342.75,-280.5 342.75,4 -4,4"/>
<text xml:space="preserve" text-anchor="middle" x="169.38" y="-7.2" font-family="Times New Roman,serif" font-size="14.00">simple_archive &#45; Dependencies</text>
<!-- simple_archive -->
<g id="node1" class="node">
<title>simple_archive</title>
<polygon fill="lightblue" stroke="black" points="99.25,-168.5 0,-168.5 0,-132.5 99.25,-132.5 99.25,-168.5"/>
<text xml:space="preserve" text-anchor="middle" x="49.62" y="-145.45" font-family="Times New Roman,serif" font-size="14.00">simple_archive</text>
</g>
<!-- simple_testing -->
<g id="node2" class="node">
<title>simple_testing</title>
<polygon fill="lightblue" stroke="black" points="338.75,-276.5 243.25,-276.5 243.25,-240.5 338.75,-240.5 338.75,-276.5"/>
<text xml:space="preserve" text-anchor="middle" x="291" y="-253.45" font-family="Times New Roman,serif" font-size="14.00">simple_testing</text>
</g>
<!-- simple_archive&#45;&gt;simple_testing -->
<g id="edge1" class="edge">
<title>simple_archive&#45;&gt;simple_testing</title>
<path fill="none" stroke="black" stroke-dasharray="5,2" d="M99.56,-159.5C159.99,-159.5 253.75,-159.5 253.75,-159.5 253.75,-159.5 253.75,-228.83 253.75,-228.83"/>
<polygon fill="black" stroke="black" points="250.25,-228.83 253.75,-238.83 257.25,-228.83 250.25,-228.83"/>
</g>
<!-- base -->
<g id="node3" class="node">
<title>base</title>
<polygon fill="lightgray" stroke="black" points="318,-204.5 264,-204.5 264,-168.5 318,-168.5 318,-204.5"/>
<text xml:space="preserve" text-anchor="middle" x="291" y="-181.45" font-family="Times New Roman,serif" font-size="14.00">base</text>
</g>
<!-- simple_archive&#45;&gt;base -->
<g id="edge2" class="edge">
<title>simple_archive&#45;&gt;base</title>
<path fill="none" stroke="black" stroke-dasharray="5,2" d="M99.71,-150.5C167.95,-150.5 281.75,-150.5 281.75,-150.5 281.75,-150.5 281.75,-156.56 281.75,-156.56"/>
<polygon fill="black" stroke="black" points="278.25,-156.56 281.75,-166.56 285.25,-156.56 278.25,-156.56"/>
</g>
<!-- tar -->
<g id="node4" class="node">
<title>tar</title>
<polygon fill="lightgray" stroke="black" points="318,-132.5 264,-132.5 264,-96.5 318,-96.5 318,-132.5"/>
<text xml:space="preserve" text-anchor="middle" x="291" y="-109.45" font-family="Times New Roman,serif" font-size="14.00">tar</text>
</g>
<!-- simple_archive&#45;&gt;tar -->
<g id="edge3" class="edge">
<title>simple_archive&#45;&gt;tar</title>
<path fill="none" stroke="black" stroke-dasharray="5,2" d="M99.64,-141.5C172.63,-141.5 299.75,-141.5 299.75,-141.5 299.75,-141.5 299.75,-140.65 299.75,-140.65"/>
<polygon fill="black" stroke="black" points="303.25,-144.47 299.75,-134.47 296.25,-144.47 303.25,-144.47"/>
</g>
<!-- testing -->
<g id="node5" class="node">
<title>testing</title>
<polygon fill="lightgray" stroke="black" points="318,-60.5 264,-60.5 264,-24.5 318,-24.5 318,-60.5"/>
<text xml:space="preserve" text-anchor="middle" x="291" y="-37.45" font-family="Times New Roman,serif" font-size="14.00">testing</text>
</g>
<!-- simple_archive&#45;&gt;testing -->
<g id="edge4" class="edge">
<title>simple_archive&#45;&gt;testing</title>
<path fill="none" stroke="black" stroke-dasharray="5,2" d="M49.75,-132.18C49.75,-101.37 49.75,-42.5 49.75,-42.5 49.75,-42.5 252.28,-42.5 252.28,-42.5"/>
<polygon fill="black" stroke="black" points="252.28,-46 262.28,-42.5 252.28,-39 252.28,-46"/>
</g>
</g>
</svg>
